<svg width="1200" height="480" viewBox="0 0 1200 480" fill="none" xmlns="http://www.w3.org/2000/svg" role="img" aria-labelledby="title desc">
  <title id="title">FashionAI Studio editorial workspace</title>
  <desc id="desc">A code-drawn FashionAI Studio interface with six workflow stages, generated garment candidates, quality evidence, and human review</desc>

  <rect width="1200" height="480" fill="#F4F1E8"/>
  <rect width="1200" height="56" fill="#171717"/>
  <rect x="24" y="17" width="22" height="22" fill="#D8FF3E"/>
  <path d="M29 28H41M35 22V34" stroke="#171717" stroke-width="2"/>
  <text x="58" y="35" fill="#F4F1E8" font-family="Arial,sans-serif" font-size="15" font-weight="700" letter-spacing="1.5">FASHIONAI STUDIO</text>
  <text x="1170" y="34" text-anchor="end" fill="#A9A79F" font-family="Arial,sans-serif" font-size="11" letter-spacing="1.3">EDITORIAL MOCK V7</text>

  <rect y="56" width="220" height="424" fill="#171717"/>
  <text x="24" y="92" fill="#77766F" font-family="Arial,sans-serif" font-size="9" font-weight="700" letter-spacing="1.6">STUDIO</text>
  <rect x="14" y="108" width="192" height="42" fill="#D8FF3E"/>
  <text x="30" y="134" fill="#171717" font-family="Arial,sans-serif" font-size="13" font-weight="700">工作台</text>
  <text x="30" y="178" fill="#D1CFC5" font-family="Arial,sans-serif" font-size="13">项目</text>
  <text x="30" y="216" fill="#D1CFC5" font-family="Arial,sans-serif" font-size="13">Playground</text>
  <text x="30" y="254" fill="#D1CFC5" font-family="Arial,sans-serif" font-size="13">素材</text>
  <text x="30" y="292" fill="#D1CFC5" font-family="Arial,sans-serif" font-size="13">任务</text>
  <path d="M24 326H196" stroke="#3E3E3A"/>
  <text x="24" y="358" fill="#77766F" font-family="Arial,sans-serif" font-size="9" font-weight="700" letter-spacing="1.6">ACTIVE PROJECT</text>
  <text x="24" y="384" fill="#F4F1E8" font-family="Arial,sans-serif" font-size="13" font-weight="700">Graphite / 01</text>
  <text x="24" y="406" fill="#939189" font-family="Arial,sans-serif" font-size="11">Review in progress</text>
  <rect x="24" y="431" width="172" height="4" fill="#3E3E3A"/>
  <rect x="24" y="431" width="132" height="4" fill="#D8FF3E"/>

  <text x="248" y="87" fill="#77766F" font-family="Arial,sans-serif" font-size="9" font-weight="700" letter-spacing="1.6">PROJECT / GRAPHITE EDITORIAL PACK</text>
  <text x="248" y="116" fill="#171717" font-family="Arial,sans-serif" font-size="25" font-weight="700">人工审核生成工作台</text>
  <text x="1170" y="105" text-anchor="end" fill="#5D5B55" font-family="Arial,sans-serif" font-size="11">03 candidates · 01 selected</text>

  <g font-family="Arial,sans-serif" font-size="10" font-weight="700">
    <rect x="248" y="136" width="138" height="34" fill="#EEEAE0" stroke="#171717"/>
    <text x="260" y="157" fill="#171717">01  BRIEF</text>
    <rect x="386" y="136" width="138" height="34" fill="#EEEAE0" stroke="#171717"/>
    <text x="398" y="157" fill="#171717">02  DESIGN</text>
    <rect x="524" y="136" width="138" height="34" fill="#EEEAE0" stroke="#171717"/>
    <text x="536" y="157" fill="#171717">03  GENERATE</text>
    <rect x="662" y="136" width="138" height="34" fill="#EEEAE0" stroke="#171717"/>
    <text x="674" y="157" fill="#171717">04  RESULTS</text>
    <rect x="800" y="136" width="138" height="34" fill="#D8FF3E" stroke="#171717"/>
    <text x="812" y="157" fill="#171717">05  REVIEW</text>
    <rect x="938" y="136" width="232" height="34" fill="#EEEAE0" stroke="#171717"/>
    <text x="950" y="157" fill="#171717">06  DELIVER</text>
  </g>

  <rect x="248" y="190" width="640" height="266" fill="#FBF8F0" stroke="#171717"/>
  <text x="266" y="218" fill="#171717" font-family="Arial,sans-serif" font-size="13" font-weight="700">候选结果 / CANDIDATES</text>
  <text x="870" y="218" text-anchor="end" fill="#77766F" font-family="Arial,sans-serif" font-size="10">Quality is evidence, not approval</text>

  <g transform="translate(266 234)">
    <rect width="188" height="184" fill="#E7E3DA" stroke="#171717"/>
    <rect x="14" y="14" width="160" height="116" fill="#FDFCF8"/>
    <ellipse cx="94" cy="116" rx="46" ry="5" fill="#CEC9BE"/>
    <path d="M70 39L50 49L32 72L51 84L63 70V111H125V70L137 84L156 72L138 49L118 39C113 49 105 53 94 53C83 53 75 49 70 39Z" fill="#292B2A"/>
    <path d="M81 40C84 47 88 49 94 49C100 49 104 47 107 40" stroke="#686A67" stroke-width="3"/>
    <rect y="130" width="188" height="54" fill="#171717"/>
    <text x="12" y="151" fill="#F4F1E8" font-family="Arial,sans-serif" font-size="10" font-weight="700">PRODUCT / 01</text>
    <circle cx="148" cy="148" r="5" fill="#D8FF3E"/>
    <text x="159" y="152" fill="#D8FF3E" font-family="Arial,sans-serif" font-size="9">PASS</text>
    <text x="12" y="171" fill="#97958E" font-family="Arial,sans-serif" font-size="9">2048 × 2048 · selected</text>
  </g>

  <g transform="translate(470 234)">
    <rect width="188" height="184" fill="#E7E3DA" stroke="#171717"/>
    <rect x="14" y="14" width="160" height="116" fill="#D8D4CB"/>
    <circle cx="94" cy="38" r="13" fill="#BA8469"/>
    <path d="M75 56C82 49 106 49 113 56L120 101H68L75 56Z" fill="#292B2A"/>
    <path d="M76 58L57 85M112 58L131 85" stroke="#BA8469" stroke-width="9" stroke-linecap="round"/>
    <path d="M79 101L76 127M109 101L112 127" stroke="#4B4D4B" stroke-width="11" stroke-linecap="round"/>
    <rect y="130" width="188" height="54" fill="#171717"/>
    <text x="12" y="151" fill="#F4F1E8" font-family="Arial,sans-serif" font-size="10" font-weight="700">MODEL / 02</text>
    <circle cx="148" cy="148" r="5" fill="#FFB547"/>
    <text x="159" y="152" fill="#FFB547" font-family="Arial,sans-serif" font-size="9">WARN</text>
    <text x="12" y="171" fill="#97958E" font-family="Arial,sans-serif" font-size="9">2048 × 2048 · review</text>
  </g>

  <g transform="translate(674 234)">
    <rect width="196" height="184" fill="#E7E3DA" stroke="#171717"/>
    <rect x="14" y="14" width="168" height="116" fill="#171717"/>
    <rect x="26" y="27" width="41" height="14" fill="#D8FF3E"/>
    <text x="30" y="37" fill="#171717" font-family="Arial,sans-serif" font-size="7" font-weight="700">NEW DROP</text>
    <path d="M71 53L56 61L44 78L58 87L67 77V112H111V77L120 87L134 78L122 61L107 53C103 60 98 63 89 63C80 63 75 60 71 53Z" fill="#EBE8E0"/>
    <text x="147" y="104" text-anchor="middle" fill="#F4F1E8" font-family="Arial,sans-serif" font-size="8" letter-spacing="1">GRAPHITE</text>
    <rect y="130" width="196" height="54" fill="#171717"/>
    <text x="12" y="151" fill="#F4F1E8" font-family="Arial,sans-serif" font-size="10" font-weight="700">SOCIAL / 03</text>
    <circle cx="153" cy="148" r="5" fill="#D8FF3E"/>
    <text x="164" y="152" fill="#D8FF3E" font-family="Arial,sans-serif" font-size="9">PASS</text>
    <text x="12" y="171" fill="#97958E" font-family="Arial,sans-serif" font-size="9">1080 × 1350 · ready</text>
  </g>

  <rect x="908" y="190" width="262" height="266" fill="#171717"/>
  <text x="928" y="219" fill="#77766F" font-family="Arial,sans-serif" font-size="9" font-weight="700" letter-spacing="1.5">INSPECTOR / HUMAN REVIEW</text>
  <text x="928" y="250" fill="#F4F1E8" font-family="Arial,sans-serif" font-size="15" font-weight="700">Product / 01</text>
  <path d="M928 267H1150" stroke="#3E3E3A"/>
  <circle cx="934" cy="291" r="5" fill="#D8FF3E"/>
  <text x="949" y="295" fill="#D8FF3E" font-family="Arial,sans-serif" font-size="10" font-weight="700">QUALITY PASS</text>
  <text x="928" y="320" fill="#B4B2AA" font-family="Arial,sans-serif" font-size="10">Garment silhouette preserved</text>
  <text x="928" y="340" fill="#B4B2AA" font-family="Arial,sans-serif" font-size="10">No forbidden claims detected</text>
  <text x="928" y="360" fill="#B4B2AA" font-family="Arial,sans-serif" font-size="10">Source asset trace recorded</text>
  <rect x="928" y="381" width="222" height="48" fill="#D8FF3E"/>
  <text x="1039" y="410" text-anchor="middle" fill="#171717" font-family="Arial,sans-serif" font-size="11" font-weight="700" letter-spacing=".7">SELECT FOR DELIVERY →</text>
  <text x="928" y="447" fill="#77766F" font-family="Arial,sans-serif" font-size="9">Human choice is recorded separately.</text>
</svg>
