<svg width="1200" height="480" viewBox="0 0 1200 480" fill="none" xmlns="http://www.w3.org/2000/svg" role="img" aria-labelledby="title desc">
  <title id="title">FashionAI Studio</title>
  <desc id="desc">A code-drawn product banner showing a fashion content workspace</desc>
  <defs>
    <linearGradient id="bg" x1="0" y1="0" x2="1200" y2="480" gradientUnits="userSpaceOnUse">
      <stop stop-color="#111827"/>
      <stop offset="0.58" stop-color="#172033"/>
      <stop offset="1" stop-color="#25304A"/>
    </linearGradient>
    <linearGradient id="accent" x1="168" y1="330" x2="422" y2="330" gradientUnits="userSpaceOnUse">
      <stop stop-color="#F97316"/>
      <stop offset="1" stop-color="#FB923C"/>
    </linearGradient>
    <linearGradient id="card" x1="708" y1="155" x2="1020" y2="407" gradientUnits="userSpaceOnUse">
      <stop stop-color="#F8FAFC"/>
      <stop offset="1" stop-color="#E7EAF0"/>
    </linearGradient>
    <filter id="shadow" x="-48" y="-48" width="616" height="460" filterUnits="userSpaceOnUse" color-interpolation-filters="sRGB">
      <feDropShadow dx="0" dy="18" stdDeviation="20" flood-color="#050914" flood-opacity="0.42"/>
    </filter>
  </defs>

  <rect width="1200" height="480" rx="28" fill="url(#bg)"/>
  <circle cx="1102" cy="-6" r="214" fill="#F97316" fill-opacity="0.09"/>
  <circle cx="15" cy="458" r="170" fill="#38BDF8" fill-opacity="0.06"/>
  <path d="M0 404C186 354 301 439 481 397C662 355 840 273 1200 333V480H0V404Z" fill="#FFFFFF" fill-opacity="0.025"/>

  <g transform="translate(72 64)">
    <rect width="44" height="44" rx="13" fill="#F97316"/>
    <path d="M22 9L25.6 18.4L35 22L25.6 25.6L22 35L18.4 25.6L9 22L18.4 18.4L22 9Z" fill="white"/>
    <text x="58" y="30" fill="#F8FAFC" font-family="Inter,Arial,sans-serif" font-size="22" font-weight="700">FashionAI Studio</text>
  </g>

  <g transform="translate(72 151)">
    <rect width="198" height="30" rx="15" fill="#FFFFFF" fill-opacity="0.08" stroke="#FFFFFF" stroke-opacity="0.12"/>
    <circle cx="18" cy="15" r="5" fill="#4ADE80"/>
    <text x="31" y="20" fill="#DDE5F2" font-family="Inter,Arial,sans-serif" font-size="12" font-weight="600" letter-spacing="0.8">RUNNABLE MVP · MOCK</text>
    <text x="0" y="83" fill="white" font-family="Inter,Arial,sans-serif" font-size="48" font-weight="750">服装商品素材，</text>
    <text x="0" y="141" fill="#CBD5E1" font-family="Inter,Arial,sans-serif" font-size="48" font-weight="750">从想法到交付。</text>
    <text x="0" y="188" fill="#94A3B8" font-family="Inter,Arial,sans-serif" font-size="17">Logo 商品主图 · 模特图 · X / Twitter 宣传图</text>
    <rect y="218" width="246" height="52" rx="12" fill="url(#accent)"/>
    <text x="22" y="251" fill="white" font-family="Inter,Arial,sans-serif" font-size="14" font-weight="700">OPEN INTERACTIVE DEMO</text>
    <path d="M216 244H231M226 239L231 244L226 249" stroke="white" stroke-width="2" stroke-linecap="round" stroke-linejoin="round"/>
  </g>

  <g filter="url(#shadow)" transform="translate(605 60)">
    <rect width="520" height="364" rx="19" fill="#F8FAFC"/>
    <path d="M0 19C0 8.5 8.5 0 19 0H501C511.5 0 520 8.5 520 19V48H0V19Z" fill="#EEF1F5"/>
    <circle cx="23" cy="24" r="5" fill="#FB7185"/>
    <circle cx="40" cy="24" r="5" fill="#FBBF24"/>
    <circle cx="57" cy="24" r="5" fill="#4ADE80"/>
    <rect x="91" y="14" width="337" height="20" rx="10" fill="#DDE3EA"/>
    <text x="191" y="28" fill="#738096" font-family="Inter,Arial,sans-serif" font-size="10">fashionai-studio-demo.pages.dev</text>

    <rect y="48" width="72" height="316" fill="#131B2A"/>
    <rect x="20" y="70" width="32" height="32" rx="10" fill="#F97316"/>
    <path d="M36 77L38.3 83.7L45 86L38.3 88.3L36 95L33.7 88.3L27 86L33.7 83.7L36 77Z" fill="white"/>
    <rect x="20" y="126" width="32" height="7" rx="3.5" fill="#667085"/>
    <rect x="20" y="151" width="25" height="7" rx="3.5" fill="#384457"/>
    <rect x="20" y="176" width="29" height="7" rx="3.5" fill="#384457"/>
    <rect x="20" y="201" width="23" height="7" rx="3.5" fill="#384457"/>

    <text x="100" y="84" fill="#F97316" font-family="Inter,Arial,sans-serif" font-size="10" font-weight="700" letter-spacing="1.3">MOCK WORKSPACE</text>
    <text x="100" y="111" fill="#172033" font-family="Inter,Arial,sans-serif" font-size="20" font-weight="750">Northbound 创作团队</text>

    <g transform="translate(100 132)">
      <rect width="119" height="50" rx="10" fill="#F0F3F7"/>
      <text x="13" y="20" fill="#7C8799" font-family="Inter,Arial,sans-serif" font-size="10">素材</text>
      <text x="13" y="40" fill="#172033" font-family="Inter,Arial,sans-serif" font-size="18" font-weight="750">2</text>
      <rect x="131" width="119" height="50" rx="10" fill="#F0F3F7"/>
      <text x="144" y="20" fill="#7C8799" font-family="Inter,Arial,sans-serif" font-size="10">生成记录</text>
      <text x="144" y="40" fill="#172033" font-family="Inter,Arial,sans-serif" font-size="18" font-weight="750">2</text>
      <rect x="262" width="119" height="50" rx="10" fill="#FFF3E9"/>
      <text x="275" y="20" fill="#A75920" font-family="Inter,Arial,sans-serif" font-size="10">真实调用</text>
      <text x="275" y="40" fill="#F97316" font-family="Inter,Arial,sans-serif" font-size="18" font-weight="750">0</text>
    </g>

    <g transform="translate(100 201)">
      <rect width="184" height="133" rx="14" fill="url(#card)"/>
      <ellipse cx="92" cy="116" rx="56" ry="7" fill="#AAB2C0" fill-opacity="0.35"/>
      <path d="M68 31L47 43L27 69L48 83L61 67V109H123V67L136 83L157 69L136 43L115 31C109 41 102 45 92 45C82 45 75 41 68 31Z" fill="#222A37"/>
      <path d="M80 31C82 37 86 40 92 40C98 40 102 37 104 31" stroke="#4C5666" stroke-width="3" stroke-linecap="round"/>
      <rect x="64" y="113" width="56" height="4" rx="2" fill="#FFFFFF" fill-opacity="0.5"/>
      <rect x="198" width="184" height="133" rx="14" fill="#E7E2DC"/>
      <ellipse cx="290" cy="118" rx="42" ry="6" fill="#818895" fill-opacity="0.25"/>
      <circle cx="290" cy="24" r="12" fill="#C89375"/>
      <path d="M273 39C279 34 301 34 307 39L314 84H266L273 39Z" fill="#232B38"/>
      <path d="M273 42L258 70" stroke="#C89375" stroke-width="8" stroke-linecap="round"/>
      <path d="M307 42L322 70" stroke="#C89375" stroke-width="8" stroke-linecap="round"/>
      <path d="M278 84L276 115M302 84L304 115" stroke="#374151" stroke-width="10" stroke-linecap="round"/>
      <circle cx="362" cy="17" r="10" fill="#DCFCE7"/>
      <path d="M357 17L361 21L368 13" stroke="#16A34A" stroke-width="2" stroke-linecap="round" stroke-linejoin="round"/>
    </g>
  </g>
</svg>
